<svg xmlns="http://www.w3.org/2000/svg" viewBox="0 0 900 600"><path d="M0 0h900v600H0z"/><path d="m0 104 25 2 125 8c50 2 100 2 150-4s100-20 150-19 100 15 150 15 100-15 150-15c50-1 100 13 125 20l25 7v483H0Z" fill="#6d66cf"/><path d="m0 159 25-4c25-4 75-13 125-18 50-6 100-8 150-4s100 14 150 10 100-24 150-26c50-3 100 11 150 16s100 2 125 0l25-2v470H0Z" fill="#615bc3"/><path d="m0 158 25 10c25 10 75 31 125 28 50-4 100-30 150-37s100 6 150 18c50 11 100 21 150 14s100-30 150-36 100 6 125 12l25 6v428H0Z" fill="#5451b6"/><path d="m0 217 25-2a2732 2732 0 0 1 275-11l150 3c50 0 100-3 150-4 50-2 100-4 150 0 50 3 100 10 125 14l25 4v380H0Z" fill="#4747aa"/><path d="m0 233 25 10c25 9 75 29 125 29s100-19 150-18 100 21 150 23 100-15 150-16 100 14 150 16 100-10 125-15l25-6v345H0Z" fill="#3a3d9e"/><path d="m0 335 25-3 125-12c50-4 100-6 150-13s100-19 150-18 100 16 150 25 100 14 150 13c50 0 100-5 125-7l25-3v284H0Z" fill="#2c3392"/><path d="m0 313 25 2 125 7c50 2 100 2 150 5s100 9 150 10 100-3 150-3l150 2c50-1 100-5 125-7l25-2v274H0Z" fill="#1b2986"/><path d="m0 390 25 3 125 15c50 5 100 7 150-1s100-28 150-28 100 20 150 24 100-8 150-14 100-7 125-7l25-1v220H0Z" fill="#02207b"/><path d="m0 457 25-2c25-2 75-6 125-12l150-22c50-7 100-11 150-9s100 10 150 13 100-1 150 1c50 1 100 8 125 11l25 3v161H0Z" fill="#00176f"/><path d="m0 455 25-2c25-2 75-6 125-4s100 9 150 14c50 4 100 5 150 7 50 1 100 4 150 1s100-11 150-13 100 1 125 3l25 2v138H0Z" fill="#000f64"/><path d="m0 505 25 4c25 3 75 10 125 12s100-2 150-3c50-2 100-2 150 0l150 7h150l125-1h25v77H0Z" fill="#000459"/><path d="m0 575 25-2c25-2 75-7 125-14s100-17 150-16c50 2 100 14 150 18s100-2 150-6c50-5 100-10 150-6 50 3 100 14 125 20l25 5v27H0Z"/></svg>