<svg id="visual" viewBox="0 0 900 600" width="900" height="600" xmlns="http://www.w3.org/2000/svg" xmlns:xlink="http://www.w3.org/1999/xlink" version="1.1"><rect width="900" height="600" fill="#931F1F"></rect><g><g transform="translate(558 373)"><path d="M92.6 -27.5C106.7 13.2 95.5 64.7 62.6 89.3C29.7 114 -24.9 111.8 -62.1 84.9C-99.2 58 -118.8 6.5 -105.6 -33.1C-92.3 -72.8 -46.2 -100.5 -3.4 -99.4C39.3 -98.3 78.5 -68.3 92.6 -27.5Z" stroke="#F7760E" fill="none" stroke-width="20"></path></g><g transform="translate(267 154)"><path d="M87.1 -26.9C98.7 7.4 84.1 51.5 53.1 74.4C22.1 97.2 -25.4 98.7 -52.8 77.6C-80.3 56.5 -87.8 12.8 -75.7 -22.2C-63.5 -57.2 -31.8 -83.4 3 -84.4C37.8 -85.3 75.5 -61.1 87.1 -26.9Z" stroke="#F7760E" fill="none" stroke-width="20"></path></g><g transform="translate(304 563)"><path d="M84.9 -25.8C97.3 10.8 86.1 57 57.3 77.6C28.5 98.2 -17.8 93.3 -48.3 70.3C-78.8 47.2 -93.5 6.1 -82.8 -28.2C-72.1 -62.4 -36 -89.6 0.1 -89.7C36.2 -89.7 72.4 -62.5 84.9 -25.8Z" stroke="#F7760E" fill="none" stroke-width="20"></path></g></g></svg>