<svg width="900" height="600" xmlns="http://www.w3.org/2000/svg"><path fill="#931C1C" d="M0 0h900v600H0z"/><path d="m0 378 129 18 128 14 129-20 128-16 129 24 128-33 129 52v184H0Z" fill="#f5730a"/><path d="m0 402 129 52 128 7 129-33 128-20 129 49 128-39 129 28v155H0Z" fill="#da5b09"/><path d="m0 490 129 11 128-17 129-12 128 8 129-37 128-4 129 49v113H0Z" fill="#be4407"/><path d="m0 511 129-25 128 47 129-25 128 31 129-3 128-51 129 25v91H0Z" fill="#a32d04"/><path d="m0 533 129 40 128-16 129-15 128 11 129 16 128-43 129 38v37H0Z" fill="#871400"/></svg>