<svg width="900" height="600" xmlns="http://www.w3.org/2000/svg"><path fill="#001220" d="M0 0h900v600H0z"/><path d="m0 432 22-3c21-4 64-10 107-12 43-1 85 3 128-3s86-23 129-29c43-7 85-5 128-6 43-2 86-9 129-2s85 26 128 35c43 8 86 4 108 3l21-2v188H0Z" fill="#fa7268"/><path d="m0 400 22 9c21 9 64 27 107 32s85-2 128-4 86 2 129 8 85 15 128 10c43-4 86-22 129-22 43-1 85 14 128 12s86-21 108-31l21-10v197H0Z" fill="#ef5f67"/><path d="m0 458 22-2c21-1 64-5 107 1 43 5 85 20 128 25 43 6 86 2 129-1l128-12c43-4 86-7 129-7 43 1 85 6 128 11l108 12 21 2v114H0Z" fill="#e34c67"/><path d="m0 507 22 1c21 1 64 3 107 2 43 0 85-4 128-6s86-2 129 3c43 4 85 15 128 15s86-10 129-15 85-6 128-3c43 2 86 6 108 9l21 2v86H0Z" fill="#d53867"/><path d="m0 531 22 6c21 5 64 16 107 15s85-13 128-17 86 0 129 4l128 8c43 3 86 7 129 7 43 1 85-3 128-4 43-2 86-1 108-1h21v52H0Z" fill="#c62368"/></svg>