<svg id="visual" viewBox="0 0 900 600" width="900" height="600" xmlns="http://www.w3.org/2000/svg" xmlns:xlink="http://www.w3.org/1999/xlink" version="1.1"><rect x="0" y="0" width="900" height="600" fill="#001220"></rect><path d="M0 432L21.5 428.7C43 425.3 86 418.7 128.8 417.3C171.7 416 214.3 420 257.2 413.8C300 407.7 343 391.3 385.8 384.5C428.7 377.7 471.3 380.3 514.2 378.5C557 376.7 600 370.3 642.8 377C685.7 383.7 728.3 403.3 771.2 411.5C814 419.7 857 416.3 878.5 414.7L900 413L900 601L878.5 601C857 601 814 601 771.2 601C728.3 601 685.7 601 642.8 601C600 601 557 601 514.2 601C471.3 601 428.7 601 385.8 601C343 601 300 601 257.2 601C214.3 601 171.7 601 128.8 601C86 601 43 601 21.5 601L0 601Z" fill="#fa7268"></path><path d="M0 400L21.5 409C43 418 86 436 128.8 441.2C171.7 446.3 214.3 438.7 257.2 436.8C300 435 343 439 385.8 445.2C428.7 451.3 471.3 459.7 514.2 455.2C557 450.7 600 433.3 642.8 432.5C685.7 431.7 728.3 447.3 771.2 445.3C814 443.3 857 423.7 878.5 413.8L900 404L900 601L878.5 601C857 601 814 601 771.2 601C728.3 601 685.7 601 642.8 601C600 601 557 601 514.2 601C471.3 601 428.7 601 385.8 601C343 601 300 601 257.2 601C214.3 601 171.7 601 128.8 601C86 601 43 601 21.5 601L0 601Z" fill="#ef5f67"></path><path d="M0 458L21.5 456.3C43 454.7 86 451.3 128.8 456.8C171.7 462.3 214.3 476.7 257.2 482.2C300 487.7 343 484.3 385.8 480.7C428.7 477 471.3 473 514.2 469.2C557 465.3 600 461.7 642.8 462.3C685.7 463 728.3 468 771.2 472.8C814 477.7 857 482.3 878.5 484.7L900 487L900 601L878.5 601C857 601 814 601 771.2 601C728.3 601 685.7 601 642.8 601C600 601 557 601 514.2 601C471.3 601 428.7 601 385.8 601C343 601 300 601 257.2 601C214.3 601 171.7 601 128.8 601C86 601 43 601 21.5 601L0 601Z" fill="#e34c67"></path><path d="M0 507L21.5 508C43 509 86 511 128.8 510.3C171.7 509.7 214.3 506.3 257.2 504.3C300 502.3 343 501.7 385.8 506.5C428.7 511.3 471.3 521.7 514.2 521.8C557 522 600 512 642.8 506.8C685.7 501.7 728.3 501.3 771.2 503.5C814 505.7 857 510.3 878.5 512.7L900 515L900 601L878.5 601C857 601 814 601 771.2 601C728.3 601 685.7 601 642.8 601C600 601 557 601 514.2 601C471.3 601 428.7 601 385.8 601C343 601 300 601 257.2 601C214.3 601 171.7 601 128.8 601C86 601 43 601 21.5 601L0 601Z" fill="#d53867"></path><path d="M0 531L21.5 536.5C43 542 86 553 128.8 552.2C171.7 551.3 214.3 538.7 257.2 534.7C300 530.7 343 535.3 385.8 538.7C428.7 542 471.3 544 514.2 547C557 550 600 554 642.8 554.3C685.7 554.7 728.3 551.3 771.2 549.8C814 548.3 857 548.7 878.5 548.8L900 549L900 601L878.5 601C857 601 814 601 771.2 601C728.3 601 685.7 601 642.8 601C600 601 557 601 514.2 601C471.3 601 428.7 601 385.8 601C343 601 300 601 257.2 601C214.3 601 171.7 601 128.8 601C86 601 43 601 21.5 601L0 601Z" fill="#c62368"></path></svg>