<svg id="visual" viewBox="0 0 900 600" width="900" height="600" xmlns="http://www.w3.org/2000/svg" xmlns:xlink="http://www.w3.org/1999/xlink" version="1.1"><g stroke-width="1" stroke-linejoin="bevel"><path d="M467 297L494.3 346L505.3 286Z" fill="#112e42" stroke="#112e42"></path><path d="M467 297L445 334L494.3 346Z" fill="#19435d" stroke="#19435d"></path><path d="M557.6 259L522.3 270L584.6 331Z" fill="#081a28" stroke="#081a28"></path><path d="M505.3 286L431 255L467 297Z" fill="#246688" stroke="#246688"></path><path d="M584.6 331L522.3 270L505.3 286Z" fill="#112e42" stroke="#112e42"></path><path d="M522.3 270L431 255L505.3 286Z" fill="#1d4e6b" stroke="#1d4e6b"></path><path d="M467 297L431 255L445 334Z" fill="#19435d" stroke="#19435d"></path><path d="M465 183L431 255L522.3 270Z" fill="#246688" stroke="#246688"></path><path d="M494.3 346L584.6 331L505.3 286Z" fill="#205a7a" stroke="#205a7a"></path><path d="M456 404L513.3 406L494.3 346Z" fill="#205a7a" stroke="#205a7a"></path><path d="M494.3 346L573.6 389L584.6 331Z" fill="#19435d" stroke="#19435d"></path><path d="M374.7 310L408.7 359L445 334Z" fill="#15384f" stroke="#15384f"></path><path d="M445 334L456 404L494.3 346Z" fill="#246688" stroke="#246688"></path><path d="M408.7 359L456 404L445 334Z" fill="#19435d" stroke="#19435d"></path><path d="M513.3 406L573.6 389L494.3 346Z" fill="#0c2435" stroke="#0c2435"></path><path d="M513.3 406L565.6 404L573.6 389Z" fill="#1d4e6b" stroke="#1d4e6b"></path><path d="M431 255L374.7 310L445 334Z" fill="#246688" stroke="#246688"></path><path d="M392.7 205L398.7 239L431 255Z" fill="#246688" stroke="#246688"></path><path d="M431 255L398.7 239L374.7 310Z" fill="#19435d" stroke="#19435d"></path><path d="M615.9 350L618.9 324L584.6 331Z" fill="#00101c" stroke="#00101c"></path><path d="M584.6 331L618.9 324L557.6 259Z" fill="#205a7a" stroke="#205a7a"></path><path d="M615.9 350L584.6 331L573.6 389Z" fill="#112e42" stroke="#112e42"></path><path d="M652.9 409L615.9 350L573.6 389Z" fill="#0c2435" stroke="#0c2435"></path><path d="M505.3 174L465 183L522.3 270Z" fill="#277297" stroke="#277297"></path><path d="M644.9 267L589.6 213L557.6 259Z" fill="#19435d" stroke="#19435d"></path><path d="M557.6 259L505.3 174L522.3 270Z" fill="#112e42" stroke="#112e42"></path><path d="M589.6 213L505.3 174L557.6 259Z" fill="#297ea6" stroke="#297ea6"></path><path d="M465 183L392.7 205L431 255Z" fill="#1d4e6b" stroke="#1d4e6b"></path><path d="M328.4 260L330.4 303L374.7 310Z" fill="#081a28" stroke="#081a28"></path><path d="M456 404L504.3 473L513.3 406Z" fill="#00101c" stroke="#00101c"></path><path d="M513.3 406L504.3 473L565.6 404Z" fill="#112e42" stroke="#112e42"></path><path d="M565.6 404L652.9 409L573.6 389Z" fill="#00101c" stroke="#00101c"></path><path d="M458 502L504.3 473L456 404Z" fill="#1d4e6b" stroke="#1d4e6b"></path><path d="M684.1 364L644.9 267L618.9 324Z" fill="#297ea6" stroke="#297ea6"></path><path d="M618.9 324L644.9 267L557.6 259Z" fill="#0c2435" stroke="#0c2435"></path><path d="M328.4 260L374.7 310L398.7 239Z" fill="#277297" stroke="#277297"></path><path d="M374.7 310L351.7 398L408.7 359Z" fill="#15384f" stroke="#15384f"></path><path d="M408.7 359L351.7 398L456 404Z" fill="#1d4e6b" stroke="#1d4e6b"></path><path d="M316.4 357L351.7 398L374.7 310Z" fill="#1d4e6b" stroke="#1d4e6b"></path><path d="M392.7 205L328.4 260L398.7 239Z" fill="#19435d" stroke="#19435d"></path><path d="M286.1 344L316.4 357L330.4 303Z" fill="#205a7a" stroke="#205a7a"></path><path d="M330.4 303L316.4 357L374.7 310Z" fill="#297ea6" stroke="#297ea6"></path><path d="M584.6 501L652.9 409L565.6 404Z" fill="#19435d" stroke="#19435d"></path><path d="M615.9 350L684.1 364L618.9 324Z" fill="#297ea6" stroke="#297ea6"></path><path d="M396.7 480L458 502L456 404Z" fill="#277297" stroke="#277297"></path><path d="M504.3 473L584.6 501L565.6 404Z" fill="#297ea6" stroke="#297ea6"></path><path d="M351.7 398L396.7 480L456 404Z" fill="#0c2435" stroke="#0c2435"></path><path d="M301.4 437L396.7 480L351.7 398Z" fill="#297ea6" stroke="#297ea6"></path><path d="M652.9 409L684.1 364L615.9 350Z" fill="#297ea6" stroke="#297ea6"></path><path d="M702.1 263L649.9 194L644.9 267Z" fill="#246688" stroke="#246688"></path><path d="M644.9 267L649.9 194L589.6 213Z" fill="#00101c" stroke="#00101c"></path><path d="M590.6 117L507.3 101L505.3 174Z" fill="#00101c" stroke="#00101c"></path><path d="M550.6 521L584.6 501L504.3 473Z" fill="#205a7a" stroke="#205a7a"></path><path d="M259.1 314L286.1 344L330.4 303Z" fill="#0c2435" stroke="#0c2435"></path><path d="M316.4 357L301.4 437L351.7 398Z" fill="#0c2435" stroke="#0c2435"></path><path d="M507.3 101L478 106L505.3 174Z" fill="#0c2435" stroke="#0c2435"></path><path d="M505.3 174L478 106L465 183Z" fill="#246688" stroke="#246688"></path><path d="M465 183L363.7 117L392.7 205Z" fill="#297ea6" stroke="#297ea6"></path><path d="M392.7 205L301.4 162L328.4 260Z" fill="#15384f" stroke="#15384f"></path><path d="M527.3 527L550.6 521L504.3 473Z" fill="#1d4e6b" stroke="#1d4e6b"></path><path d="M590.6 117L505.3 174L589.6 213Z" fill="#277297" stroke="#277297"></path><path d="M458 502L527.3 527L504.3 473Z" fill="#15384f" stroke="#15384f"></path><path d="M473 600L527.3 527L458 502Z" fill="#00101c" stroke="#00101c"></path><path d="M722.1 299L702.1 263L644.9 267Z" fill="#205a7a" stroke="#205a7a"></path><path d="M649.9 194L590.6 117L589.6 213Z" fill="#205a7a" stroke="#205a7a"></path><path d="M286.1 344L301.4 437L316.4 357Z" fill="#205a7a" stroke="#205a7a"></path><path d="M684.1 364L722.1 299L644.9 267Z" fill="#112e42" stroke="#112e42"></path><path d="M652.9 409L711.1 404L684.1 364Z" fill="#15384f" stroke="#15384f"></path><path d="M684.1 364L775.4 359L722.1 299Z" fill="#277297" stroke="#277297"></path><path d="M584.6 501L673.9 462L652.9 409Z" fill="#112e42" stroke="#112e42"></path><path d="M646.9 528L673.9 462L584.6 501Z" fill="#205a7a" stroke="#205a7a"></path><path d="M225.1 232L259.1 314L328.4 260Z" fill="#246688" stroke="#246688"></path><path d="M328.4 260L259.1 314L330.4 303Z" fill="#246688" stroke="#246688"></path><path d="M225.1 427L271.1 453L301.4 437Z" fill="#0c2435" stroke="#0c2435"></path><path d="M673.9 462L711.1 404L652.9 409Z" fill="#277297" stroke="#277297"></path><path d="M417 54L363.7 117L478 106Z" fill="#0c2435" stroke="#0c2435"></path><path d="M478 106L363.7 117L465 183Z" fill="#246688" stroke="#246688"></path><path d="M363.7 117L301.4 162L392.7 205Z" fill="#00101c" stroke="#00101c"></path><path d="M649.9 194L649.9 117L590.6 117Z" fill="#277297" stroke="#277297"></path><path d="M570.6 27L505.3 47L507.3 101Z" fill="#00101c" stroke="#00101c"></path><path d="M721.1 152L649.9 117L649.9 194Z" fill="#00101c" stroke="#00101c"></path><path d="M721.1 152L649.9 194L740.1 163Z" fill="#19435d" stroke="#19435d"></path><path d="M318.4 507L413.7 557L396.7 480Z" fill="#0c2435" stroke="#0c2435"></path><path d="M396.7 480L413.7 557L458 502Z" fill="#297ea6" stroke="#297ea6"></path><path d="M609.6 600L584.6 501L550.6 521Z" fill="#205a7a" stroke="#205a7a"></path><path d="M224.1 98L281.1 169L301.4 162Z" fill="#00101c" stroke="#00101c"></path><path d="M301.4 162L281.1 169L328.4 260Z" fill="#297ea6" stroke="#297ea6"></path><path d="M271.1 453L318.4 507L301.4 437Z" fill="#0c2435" stroke="#0c2435"></path><path d="M301.4 437L318.4 507L396.7 480Z" fill="#112e42" stroke="#112e42"></path><path d="M214.9 396L301.4 437L286.1 344Z" fill="#15384f" stroke="#15384f"></path><path d="M521.3 600L550.6 521L527.3 527Z" fill="#081a28" stroke="#081a28"></path><path d="M609.6 600L646.9 528L584.6 501Z" fill="#297ea6" stroke="#297ea6"></path><path d="M780.4 441L775.4 359L711.1 404Z" fill="#081a28" stroke="#081a28"></path><path d="M412.7 600L421 570L413.7 557Z" fill="#1d4e6b" stroke="#1d4e6b"></path><path d="M413.7 557L421 570L458 502Z" fill="#0c2435" stroke="#0c2435"></path><path d="M775.4 359L756.4 270L722.1 299Z" fill="#205a7a" stroke="#205a7a"></path><path d="M722.1 299L756.4 270L702.1 263Z" fill="#15384f" stroke="#15384f"></path><path d="M570.6 27L507.3 101L590.6 117Z" fill="#00101c" stroke="#00101c"></path><path d="M507.3 101L505.3 47L478 106Z" fill="#1d4e6b" stroke="#1d4e6b"></path><path d="M271.1 453L311.4 513L318.4 507Z" fill="#246688" stroke="#246688"></path><path d="M318.4 507L315.4 600L413.7 557Z" fill="#277297" stroke="#277297"></path><path d="M505.3 47L417 54L478 106Z" fill="#19435d" stroke="#19435d"></path><path d="M363.7 117L336.4 87L301.4 162Z" fill="#0c2435" stroke="#0c2435"></path><path d="M206.9 303L217.9 328L259.1 314Z" fill="#277297" stroke="#277297"></path><path d="M259.1 314L217.9 328L286.1 344Z" fill="#19435d" stroke="#19435d"></path><path d="M341.4 80L336.4 87L363.7 117Z" fill="#205a7a" stroke="#205a7a"></path><path d="M362.7 53L341.4 80L363.7 117Z" fill="#112e42" stroke="#112e42"></path><path d="M225.1 232L281.1 169L221.9 172Z" fill="#00101c" stroke="#00101c"></path><path d="M214.9 241L225.1 232L155.6 208Z" fill="#00101c" stroke="#00101c"></path><path d="M281.1 169L225.1 232L328.4 260Z" fill="#277297" stroke="#277297"></path><path d="M740.1 163L649.9 194L702.1 263Z" fill="#15384f" stroke="#15384f"></path><path d="M412.7 600L473 600L421 570Z" fill="#00101c" stroke="#00101c"></path><path d="M421 570L473 600L458 502Z" fill="#277297" stroke="#277297"></path><path d="M711.1 404L775.4 359L684.1 364Z" fill="#15384f" stroke="#15384f"></path><path d="M780.4 441L711.1 404L673.9 462Z" fill="#205a7a" stroke="#205a7a"></path><path d="M214.9 241L206.9 303L259.1 314Z" fill="#15384f" stroke="#15384f"></path><path d="M217.9 328L214.9 396L286.1 344Z" fill="#00101c" stroke="#00101c"></path><path d="M473 600L521.3 600L527.3 527Z" fill="#15384f" stroke="#15384f"></path><path d="M221.9 172L281.1 169L224.1 98Z" fill="#00101c" stroke="#00101c"></path><path d="M225.1 232L214.9 241L259.1 314Z" fill="#0c2435" stroke="#0c2435"></path><path d="M157.6 327L214.9 396L217.9 328Z" fill="#205a7a" stroke="#205a7a"></path><path d="M271.1 453L274.1 549L311.4 513Z" fill="#277297" stroke="#277297"></path><path d="M783.4 218L740.1 163L702.1 263Z" fill="#297ea6" stroke="#297ea6"></path><path d="M783.4 218L702.1 263L756.4 270Z" fill="#0c2435" stroke="#0c2435"></path><path d="M214.9 396L225.1 427L301.4 437Z" fill="#00101c" stroke="#00101c"></path><path d="M385.7 0L362.7 53L417 54Z" fill="#277297" stroke="#277297"></path><path d="M417 54L362.7 53L363.7 117Z" fill="#205a7a" stroke="#205a7a"></path><path d="M696.1 553L708.1 513L646.9 528Z" fill="#112e42" stroke="#112e42"></path><path d="M646.9 528L708.1 513L673.9 462Z" fill="#246688" stroke="#246688"></path><path d="M315.4 600L412.7 600L413.7 557Z" fill="#19435d" stroke="#19435d"></path><path d="M626.9 30L570.6 27L590.6 117Z" fill="#112e42" stroke="#112e42"></path><path d="M505.3 47L475 0L417 54Z" fill="#205a7a" stroke="#205a7a"></path><path d="M626.9 30L590.6 117L649.9 117Z" fill="#0c2435" stroke="#0c2435"></path><path d="M691.1 57L649.9 117L721.1 152Z" fill="#0c2435" stroke="#0c2435"></path><path d="M301.4 162L336.4 87L230.1 86Z" fill="#246688" stroke="#246688"></path><path d="M224.1 98L301.4 162L230.1 86Z" fill="#19435d" stroke="#19435d"></path><path d="M155.6 208L157.6 327L206.9 303Z" fill="#277297" stroke="#277297"></path><path d="M812.7 223L783.4 218L756.4 270Z" fill="#00101c" stroke="#00101c"></path><path d="M521.3 600L609.6 600L550.6 521Z" fill="#1d4e6b" stroke="#1d4e6b"></path><path d="M814.7 177L755.4 146L740.1 163Z" fill="#15384f" stroke="#15384f"></path><path d="M740.1 163L755.4 146L721.1 152Z" fill="#205a7a" stroke="#205a7a"></path><path d="M609.6 600L619.9 600L646.9 528Z" fill="#112e42" stroke="#112e42"></path><path d="M619.9 600L696.1 553L646.9 528Z" fill="#297ea6" stroke="#297ea6"></path><path d="M708.1 513L780.4 441L673.9 462Z" fill="#205a7a" stroke="#205a7a"></path><path d="M803.4 446L780.4 441L829.7 497Z" fill="#112e42" stroke="#112e42"></path><path d="M775.4 359L810.7 337L756.4 270Z" fill="#0c2435" stroke="#0c2435"></path><path d="M691.1 57L626.9 30L649.9 117Z" fill="#277297" stroke="#277297"></path><path d="M584.6 0L507.3 0L570.6 27Z" fill="#00101c" stroke="#00101c"></path><path d="M570.6 27L507.3 0L505.3 47Z" fill="#112e42" stroke="#112e42"></path><path d="M507.3 0L475 0L505.3 47Z" fill="#1d4e6b" stroke="#1d4e6b"></path><path d="M859.7 414L810.7 337L775.4 359Z" fill="#1d4e6b" stroke="#1d4e6b"></path><path d="M195.9 513L274.1 549L271.1 453Z" fill="#246688" stroke="#246688"></path><path d="M311.4 513L315.4 600L318.4 507Z" fill="#246688" stroke="#246688"></path><path d="M750.4 102L691.1 57L721.1 152Z" fill="#246688" stroke="#246688"></path><path d="M609.9 0L584.6 0L570.6 27Z" fill="#112e42" stroke="#112e42"></path><path d="M609.9 0L570.6 27L626.9 30Z" fill="#1d4e6b" stroke="#1d4e6b"></path><path d="M475 0L385.7 0L417 54Z" fill="#297ea6" stroke="#297ea6"></path><path d="M362.7 53L353.4 0L341.4 80Z" fill="#081a28" stroke="#081a28"></path><path d="M783.4 218L814.7 177L740.1 163Z" fill="#112e42" stroke="#112e42"></path><path d="M755.4 146L750.4 102L721.1 152Z" fill="#1d4e6b" stroke="#1d4e6b"></path><path d="M810.7 337L812.7 223L756.4 270Z" fill="#112e42" stroke="#112e42"></path><path d="M858.7 133L750.4 102L755.4 146Z" fill="#205a7a" stroke="#205a7a"></path><path d="M162.9 490L195.9 513L225.1 427Z" fill="#19435d" stroke="#19435d"></path><path d="M225.1 427L195.9 513L271.1 453Z" fill="#277297" stroke="#277297"></path><path d="M206.9 303L157.6 327L217.9 328Z" fill="#297ea6" stroke="#297ea6"></path><path d="M155.6 208L206.9 303L214.9 241Z" fill="#15384f" stroke="#15384f"></path><path d="M696.1 0L609.9 0L626.9 30Z" fill="#205a7a" stroke="#205a7a"></path><path d="M274.1 549L315.4 600L311.4 513Z" fill="#297ea6" stroke="#297ea6"></path><path d="M764.4 555L780.4 441L708.1 513Z" fill="#15384f" stroke="#15384f"></path><path d="M780.4 441L803.4 446L775.4 359Z" fill="#15384f" stroke="#15384f"></path><path d="M385.7 0L353.4 0L362.7 53Z" fill="#246688" stroke="#246688"></path><path d="M230.1 86L336.4 87L267.1 0Z" fill="#0c2435" stroke="#0c2435"></path><path d="M221.9 172L155.6 208L225.1 232Z" fill="#277297" stroke="#277297"></path><path d="M267.1 0L336.4 87L341.4 80Z" fill="#205a7a" stroke="#205a7a"></path><path d="M858.7 133L814.7 177L900 163Z" fill="#00101c" stroke="#00101c"></path><path d="M812.7 223L814.7 177L783.4 218Z" fill="#112e42" stroke="#112e42"></path><path d="M171.9 136L221.9 172L224.1 98Z" fill="#1d4e6b" stroke="#1d4e6b"></path><path d="M171.9 136L155.6 208L221.9 172Z" fill="#246688" stroke="#246688"></path><path d="M162.9 490L225.1 427L116.6 426Z" fill="#246688" stroke="#246688"></path><path d="M274.1 549L271.1 600L315.4 600Z" fill="#00101c" stroke="#00101c"></path><path d="M186.9 600L271.1 600L274.1 549Z" fill="#1d4e6b" stroke="#1d4e6b"></path><path d="M735.1 600L764.4 555L696.1 553Z" fill="#00101c" stroke="#00101c"></path><path d="M696.1 553L764.4 555L708.1 513Z" fill="#205a7a" stroke="#205a7a"></path><path d="M142.6 69L171.9 136L224.1 98Z" fill="#15384f" stroke="#15384f"></path><path d="M859.7 414L862.7 327L810.7 337Z" fill="#297ea6" stroke="#297ea6"></path><path d="M810.7 337L862.7 327L812.7 223Z" fill="#246688" stroke="#246688"></path><path d="M859.7 414L775.4 359L803.4 446Z" fill="#0c2435" stroke="#0c2435"></path><path d="M116.6 426L225.1 427L214.9 396Z" fill="#277297" stroke="#277297"></path><path d="M195.9 513L186.9 600L274.1 549Z" fill="#1d4e6b" stroke="#1d4e6b"></path><path d="M619.9 600L735.1 600L696.1 553Z" fill="#15384f" stroke="#15384f"></path><path d="M792.4 30L696.1 0L691.1 57Z" fill="#297ea6" stroke="#297ea6"></path><path d="M691.1 57L696.1 0L626.9 30Z" fill="#297ea6" stroke="#297ea6"></path><path d="M792.4 30L691.1 57L750.4 102Z" fill="#246688" stroke="#246688"></path><path d="M171.9 136L133.6 200L155.6 208Z" fill="#112e42" stroke="#112e42"></path><path d="M155.6 208L74.3 261L157.6 327Z" fill="#00101c" stroke="#00101c"></path><path d="M157.6 327L116.6 426L214.9 396Z" fill="#277297" stroke="#277297"></path><path d="M735.1 600L743.4 600L764.4 555Z" fill="#081a28" stroke="#081a28"></path><path d="M829.7 497L780.4 441L764.4 555Z" fill="#277297" stroke="#277297"></path><path d="M829.7 497L859.7 414L803.4 446Z" fill="#246688" stroke="#246688"></path><path d="M867.7 511L829.7 497L842.7 600Z" fill="#246688" stroke="#246688"></path><path d="M230.1 86L142.6 69L224.1 98Z" fill="#0c2435" stroke="#0c2435"></path><path d="M353.4 0L267.1 0L341.4 80Z" fill="#205a7a" stroke="#205a7a"></path><path d="M96.6 370L116.6 426L157.6 327Z" fill="#205a7a" stroke="#205a7a"></path><path d="M79.3 353L96.6 370L157.6 327Z" fill="#19435d" stroke="#19435d"></path><path d="M267.1 0L206.9 29L230.1 86Z" fill="#00101c" stroke="#00101c"></path><path d="M171.9 136L122.6 133L133.6 200Z" fill="#19435d" stroke="#19435d"></path><path d="M900 380L900 331L862.7 327Z" fill="#112e42" stroke="#112e42"></path><path d="M862.7 327L900 233L812.7 223Z" fill="#19435d" stroke="#19435d"></path><path d="M900 380L862.7 327L859.7 414Z" fill="#205a7a" stroke="#205a7a"></path><path d="M900 233L814.7 177L812.7 223Z" fill="#081a28" stroke="#081a28"></path><path d="M814.7 177L858.7 133L755.4 146Z" fill="#15384f" stroke="#15384f"></path><path d="M900 417L900 380L859.7 414Z" fill="#00101c" stroke="#00101c"></path><path d="M142.6 69L122.6 133L171.9 136Z" fill="#081a28" stroke="#081a28"></path><path d="M74.3 261L79.3 353L157.6 327Z" fill="#297ea6" stroke="#297ea6"></path><path d="M864.7 92L792.4 30L750.4 102Z" fill="#297ea6" stroke="#297ea6"></path><path d="M95.3 464L105.6 461L116.6 426Z" fill="#297ea6" stroke="#297ea6"></path><path d="M116.6 426L105.6 461L162.9 490Z" fill="#297ea6" stroke="#297ea6"></path><path d="M128.6 544L186.9 600L195.9 513Z" fill="#15384f" stroke="#15384f"></path><path d="M74.3 261L155.6 208L133.6 200Z" fill="#19435d" stroke="#19435d"></path><path d="M64.3 429L95.3 464L116.6 426Z" fill="#246688" stroke="#246688"></path><path d="M900 331L900 233L862.7 327Z" fill="#205a7a" stroke="#205a7a"></path><path d="M128.6 544L195.9 513L162.9 490Z" fill="#00101c" stroke="#00101c"></path><path d="M900 472L859.7 414L829.7 497Z" fill="#1d4e6b" stroke="#1d4e6b"></path><path d="M900 472L900 417L859.7 414Z" fill="#205a7a" stroke="#205a7a"></path><path d="M55.3 212L74.3 261L133.6 200Z" fill="#0c2435" stroke="#0c2435"></path><path d="M842.7 600L829.7 497L764.4 555Z" fill="#081a28" stroke="#081a28"></path><path d="M64.3 429L116.6 426L96.6 370Z" fill="#15384f" stroke="#15384f"></path><path d="M105.6 461L128.6 544L162.9 490Z" fill="#1d4e6b" stroke="#1d4e6b"></path><path d="M206.9 29L142.6 69L230.1 86Z" fill="#205a7a" stroke="#205a7a"></path><path d="M55.3 212L60.3 269L74.3 261Z" fill="#15384f" stroke="#15384f"></path><path d="M95.3 464L128.6 544L105.6 461Z" fill="#0c2435" stroke="#0c2435"></path><path d="M900 132L864.7 92L858.7 133Z" fill="#205a7a" stroke="#205a7a"></path><path d="M858.7 133L864.7 92L750.4 102Z" fill="#246688" stroke="#246688"></path><path d="M900 233L900 163L814.7 177Z" fill="#0c2435" stroke="#0c2435"></path><path d="M55.3 212L133.6 200L77.3 141Z" fill="#0c2435" stroke="#0c2435"></path><path d="M74.3 261L60.3 269L79.3 353Z" fill="#19435d" stroke="#19435d"></path><path d="M79.3 353L64.3 429L96.6 370Z" fill="#297ea6" stroke="#297ea6"></path><path d="M867.7 511L900 472L829.7 497Z" fill="#112e42" stroke="#112e42"></path><path d="M206.9 29L188.9 0L142.6 69Z" fill="#297ea6" stroke="#297ea6"></path><path d="M267.1 0L188.9 0L206.9 29Z" fill="#0c2435" stroke="#0c2435"></path><path d="M804.7 0L800.4 0L792.4 30Z" fill="#15384f" stroke="#15384f"></path><path d="M792.4 30L800.4 0L696.1 0Z" fill="#277297" stroke="#277297"></path><path d="M900 62L804.7 0L792.4 30Z" fill="#246688" stroke="#246688"></path><path d="M0 387L64.3 429L79.3 353Z" fill="#15384f" stroke="#15384f"></path><path d="M95.3 464L88.3 563L128.6 544Z" fill="#205a7a" stroke="#205a7a"></path><path d="M900 163L900 132L858.7 133Z" fill="#19435d" stroke="#19435d"></path><path d="M864.7 92L900 62L792.4 30Z" fill="#297ea6" stroke="#297ea6"></path><path d="M77.3 141L133.6 200L122.6 133Z" fill="#1d4e6b" stroke="#1d4e6b"></path><path d="M60.3 269L0 276L79.3 353Z" fill="#15384f" stroke="#15384f"></path><path d="M900 600L900 506L867.7 511Z" fill="#15384f" stroke="#15384f"></path><path d="M867.7 511L900 506L900 472Z" fill="#0c2435" stroke="#0c2435"></path><path d="M142.6 69L77.3 141L122.6 133Z" fill="#15384f" stroke="#15384f"></path><path d="M65.3 39L77.3 141L142.6 69Z" fill="#246688" stroke="#246688"></path><path d="M743.4 600L842.7 600L764.4 555Z" fill="#15384f" stroke="#15384f"></path><path d="M0 518L88.3 563L95.3 464Z" fill="#081a28" stroke="#081a28"></path><path d="M128.6 544L97.6 600L186.9 600Z" fill="#19435d" stroke="#19435d"></path><path d="M900 132L900 62L864.7 92Z" fill="#19435d" stroke="#19435d"></path><path d="M88.3 563L97.6 600L128.6 544Z" fill="#0c2435" stroke="#0c2435"></path><path d="M0 211L60.3 269L55.3 212Z" fill="#19435d" stroke="#19435d"></path><path d="M0 211L0 276L60.3 269Z" fill="#081a28" stroke="#081a28"></path><path d="M64.3 429L0 488L95.3 464Z" fill="#1d4e6b" stroke="#1d4e6b"></path><path d="M88.3 563L77.3 600L97.6 600Z" fill="#081a28" stroke="#081a28"></path><path d="M842.7 600L900 600L867.7 511Z" fill="#112e42" stroke="#112e42"></path><path d="M0 276L0 387L79.3 353Z" fill="#081a28" stroke="#081a28"></path><path d="M188.9 0L103.6 0L142.6 69Z" fill="#00101c" stroke="#00101c"></path><path d="M0 198L0 211L55.3 212Z" fill="#1d4e6b" stroke="#1d4e6b"></path><path d="M0 387L0 407L64.3 429Z" fill="#00101c" stroke="#00101c"></path><path d="M0 198L55.3 212L77.3 141Z" fill="#205a7a" stroke="#205a7a"></path><path d="M0 600L77.3 600L88.3 563Z" fill="#15384f" stroke="#15384f"></path><path d="M0 115L0 198L77.3 141Z" fill="#15384f" stroke="#15384f"></path><path d="M103.6 0L65.3 39L142.6 69Z" fill="#15384f" stroke="#15384f"></path><path d="M900 62L900 0L804.7 0Z" fill="#15384f" stroke="#15384f"></path><path d="M103.6 0L84.3 0L65.3 39Z" fill="#081a28" stroke="#081a28"></path><path d="M0 407L0 488L64.3 429Z" fill="#00101c" stroke="#00101c"></path><path d="M65.3 39L0 115L77.3 141Z" fill="#277297" stroke="#277297"></path><path d="M0 39L0 115L65.3 39Z" fill="#1d4e6b" stroke="#1d4e6b"></path><path d="M0 488L0 518L95.3 464Z" fill="#1d4e6b" stroke="#1d4e6b"></path><path d="M0 0L0 39L65.3 39Z" fill="#081a28" stroke="#081a28"></path><path d="M0 518L0 600L88.3 563Z" fill="#19435d" stroke="#19435d"></path><path d="M84.3 0L0 0L65.3 39Z" fill="#277297" stroke="#277297"></path></g></svg>