<svg width="900" height="600" xmlns="http://www.w3.org/2000/svg"><g stroke-linejoin="bevel"><path d="m467 297 27.3 49 11-60Z" fill="#112e42" stroke="#112e42"/><path d="m467 297-22 37 49.3 12Z" fill="#19435d" stroke="#19435d"/><path d="m557.6 259-35.3 11 62.3 61Z" fill="#081a28" stroke="#081a28"/><path d="M505.3 286 431 255l36 42Z" fill="#246688" stroke="#246688"/><path d="m584.6 331-62.3-61-17 16Z" fill="#112e42" stroke="#112e42"/><path d="M522.3 270 431 255l74.3 31Z" fill="#1d4e6b" stroke="#1d4e6b"/><path d="m467 297-36-42 14 79Z" fill="#19435d" stroke="#19435d"/><path d="m465 183-34 72 91.3 15Z" fill="#246688" stroke="#246688"/><path d="m494.3 346 90.3-15-79.3-45ZM456 404l57.3 2-19-60Z" fill="#205a7a" stroke="#205a7a"/><path d="m494.3 346 79.3 43 11-58Z" fill="#19435d" stroke="#19435d"/><path d="m374.7 310 34 49 36.3-25Z" fill="#15384f" stroke="#15384f"/><path d="m445 334 11 70 38.3-58Z" fill="#246688" stroke="#246688"/><path d="m408.7 359 47.3 45-11-70Z" fill="#19435d" stroke="#19435d"/><path d="m513.3 406 60.3-17-79.3-43Z" fill="#0c2435" stroke="#0c2435"/><path d="m513.3 406 52.3-2 8-15Z" fill="#1d4e6b" stroke="#1d4e6b"/><path d="m431 255-56.3 55 70.3 24ZM392.7 205l6 34 32.3 16Z" fill="#246688" stroke="#246688"/><path d="m431 255-32.3-16-24 71Z" fill="#19435d" stroke="#19435d"/><path d="m615.9 350 3-26-34.3 7Z" fill="#00101c" stroke="#00101c"/><path d="m584.6 331 34.3-7-61.3-65Z" fill="#205a7a" stroke="#205a7a"/><path d="m615.9 350-31.3-19-11 58Z" fill="#112e42" stroke="#112e42"/><path d="m652.9 409-37-59-42.3 39Z" fill="#0c2435" stroke="#0c2435"/><path d="m505.3 174-40.3 9 57.3 87Z" fill="#277297" stroke="#277297"/><path d="m644.9 267-55.3-54-32 46Z" fill="#19435d" stroke="#19435d"/><path d="m557.6 259-52.3-85 17 96Z" fill="#112e42" stroke="#112e42"/><path d="m589.6 213-84.3-39 52.3 85Z" fill="#297ea6" stroke="#297ea6"/><path d="m465 183-72.3 22 38.3 50Z" fill="#1d4e6b" stroke="#1d4e6b"/><path d="m328.4 260 2 43 44.3 7Z" fill="#081a28" stroke="#081a28"/><path d="m456 404 48.3 69 9-67Z" fill="#00101c" stroke="#00101c"/><path d="m513.3 406-9 67 61.3-69Z" fill="#112e42" stroke="#112e42"/><path d="m565.6 404 87.3 5-79.3-20Z" fill="#00101c" stroke="#00101c"/><path d="m458 502 46.3-29-48.3-69Z" fill="#1d4e6b" stroke="#1d4e6b"/><path d="m684.1 364-39.2-97-26 57Z" fill="#297ea6" stroke="#297ea6"/><path d="m618.9 324 26-57-87.3-8Z" fill="#0c2435" stroke="#0c2435"/><path d="m328.4 260 46.3 50 24-71Z" fill="#277297" stroke="#277297"/><path d="m374.7 310-23 88 57-39Z" fill="#15384f" stroke="#15384f"/><path d="m408.7 359-57 39 104.3 6ZM316.4 357l35.3 41 23-88Z" fill="#1d4e6b" stroke="#1d4e6b"/><path d="m392.7 205-64.3 55 70.3-21Z" fill="#19435d" stroke="#19435d"/><path d="m286.1 344 30.3 13 14-54Z" fill="#205a7a" stroke="#205a7a"/><path d="m330.4 303-14 54 58.3-47Z" fill="#297ea6" stroke="#297ea6"/><path d="m584.6 501 68.3-92-87.3-5Z" fill="#19435d" stroke="#19435d"/><path d="m615.9 350 68.2 14-65.2-40Z" fill="#297ea6" stroke="#297ea6"/><path d="m396.7 480 61.3 22-2-98Z" fill="#277297" stroke="#277297"/><path d="m504.3 473 80.3 28-19-97Z" fill="#297ea6" stroke="#297ea6"/><path d="m351.7 398 45 82 59.3-76Z" fill="#0c2435" stroke="#0c2435"/><path d="m301.4 437 95.3 43-45-82ZM652.9 409l31.2-45-68.2-14Z" fill="#297ea6" stroke="#297ea6"/><path d="m702.1 263-52.2-69-5 73Z" fill="#246688" stroke="#246688"/><path d="m644.9 267 5-73-60.3 19ZM590.6 117l-83.3-16-2 73Z" fill="#00101c" stroke="#00101c"/><path d="m550.6 521 34-20-80.3-28Z" fill="#205a7a" stroke="#205a7a"/><path d="m259.1 314 27 30 44.3-41ZM316.4 357l-15 80 50.3-39ZM507.3 101l-29.3 5 27.3 68Z" fill="#0c2435" stroke="#0c2435"/><path d="M505.3 174 478 106l-13 77Z" fill="#246688" stroke="#246688"/><path d="m465 183-101.3-66 29 88Z" fill="#297ea6" stroke="#297ea6"/><path d="m392.7 205-91.3-43 27 98Z" fill="#15384f" stroke="#15384f"/><path d="m527.3 527 23.3-6-46.3-48Z" fill="#1d4e6b" stroke="#1d4e6b"/><path d="m590.6 117-85.3 57 84.3 39Z" fill="#277297" stroke="#277297"/><path d="m458 502 69.3 25-23-54Z" fill="#15384f" stroke="#15384f"/><path d="m473 600 54.3-73-69.3-25Z" fill="#00101c" stroke="#00101c"/><path d="m722.1 299-20-36-57.2 4ZM649.9 194l-59.3-77-1 96ZM286.1 344l15.3 93 15-80Z" fill="#205a7a" stroke="#205a7a"/><path d="m684.1 364 38-65-77.2-32Z" fill="#112e42" stroke="#112e42"/><path d="m652.9 409 58.2-5-27-40Z" fill="#15384f" stroke="#15384f"/><path d="m684.1 364 91.3-5-53.3-60Z" fill="#277297" stroke="#277297"/><path d="m584.6 501 89.3-39-21-53Z" fill="#112e42" stroke="#112e42"/><path d="m646.9 528 27-66-89.3 39Z" fill="#205a7a" stroke="#205a7a"/><path d="m225.1 232 34 82 69.3-54Z" fill="#246688" stroke="#246688"/><path d="m328.4 260-69.3 54 71.3-11Z" fill="#246688" stroke="#246688"/><path d="m225.1 427 46 26 30.3-16Z" fill="#0c2435" stroke="#0c2435"/><path d="m673.9 462 37.2-58-58.2 5Z" fill="#277297" stroke="#277297"/><path d="m417 54-53.3 63L478 106Z" fill="#0c2435" stroke="#0c2435"/><path d="m478 106-114.3 11L465 183Z" fill="#246688" stroke="#246688"/><path d="m363.7 117-62.3 45 91.3 43Z" fill="#00101c" stroke="#00101c"/><path d="M649.9 194v-77h-59.3Z" fill="#277297" stroke="#277297"/><path d="m570.6 27-65.3 20 2 54ZM721.1 152l-71.2-35v77Z" fill="#00101c" stroke="#00101c"/><path d="m721.1 152-71.2 42 90.2-31Z" fill="#19435d" stroke="#19435d"/><path d="m318.4 507 95.3 50-17-77Z" fill="#0c2435" stroke="#0c2435"/><path d="m396.7 480 17 77 44.3-55Z" fill="#297ea6" stroke="#297ea6"/><path d="m609.6 600-25-99-34 20Z" fill="#205a7a" stroke="#205a7a"/><path d="m224.1 98 57 71 20.3-7Z" fill="#00101c" stroke="#00101c"/><path d="m301.4 162-20.3 7 47.3 91Z" fill="#297ea6" stroke="#297ea6"/><path d="m271.1 453 47.3 54-17-70Z" fill="#0c2435" stroke="#0c2435"/><path d="m301.4 437 17 70 78.3-27Z" fill="#112e42" stroke="#112e42"/><path d="m214.9 396 86.5 41-15.3-93Z" fill="#15384f" stroke="#15384f"/><path d="m521.3 600 29.3-79-23.3 6Z" fill="#081a28" stroke="#081a28"/><path d="m609.6 600 37.3-72-62.3-27Z" fill="#297ea6" stroke="#297ea6"/><path d="m780.4 441-5-82-64.3 45Z" fill="#081a28" stroke="#081a28"/><path d="m412.7 600 8.3-30-7.3-13Z" fill="#1d4e6b" stroke="#1d4e6b"/><path d="m413.7 557 7.3 13 37-68Z" fill="#0c2435" stroke="#0c2435"/><path d="m775.4 359-19-89-34.3 29Z" fill="#205a7a" stroke="#205a7a"/><path d="m722.1 299 34.3-29-54.3-7Z" fill="#15384f" stroke="#15384f"/><path d="m570.6 27-63.3 74 83.3 16Z" fill="#00101c" stroke="#00101c"/><path d="m507.3 101-2-54-27.3 59Z" fill="#1d4e6b" stroke="#1d4e6b"/><path d="m271.1 453 40.3 60 7-6Z" fill="#246688" stroke="#246688"/><path d="m318.4 507-3 93 98.3-43Z" fill="#277297" stroke="#277297"/><path d="M505.3 47 417 54l61 52Z" fill="#19435d" stroke="#19435d"/><path d="m363.7 117-27.3-30-35 75Z" fill="#0c2435" stroke="#0c2435"/><path d="m206.9 303 11 25 41.2-14Z" fill="#277297" stroke="#277297"/><path d="m259.1 314-41.2 14 68.2 16Z" fill="#19435d" stroke="#19435d"/><path d="m341.4 80-5 7 27.3 30Z" fill="#205a7a" stroke="#205a7a"/><path d="m362.7 53-21.3 27 22.3 37Z" fill="#112e42" stroke="#112e42"/><path d="m225.1 232 56-63-59.2 3ZM214.9 241l10.2-9-69.5-24Z" fill="#00101c" stroke="#00101c"/><path d="m281.1 169-56 63 103.3 28Z" fill="#277297" stroke="#277297"/><path d="m740.1 163-90.2 31 52.2 69Z" fill="#15384f" stroke="#15384f"/><path d="M412.7 600H473l-52-30Z" fill="#00101c" stroke="#00101c"/><path d="m421 570 52 30-15-98Z" fill="#277297" stroke="#277297"/><path d="m711.1 404 64.3-45-91.3 5Z" fill="#15384f" stroke="#15384f"/><path d="m780.4 441-69.3-37-37.2 58Z" fill="#205a7a" stroke="#205a7a"/><path d="m214.9 241-8 62 52.2 11Z" fill="#15384f" stroke="#15384f"/><path d="m217.9 328-3 68 71.2-52Z" fill="#00101c" stroke="#00101c"/><path d="M473 600h48.3l6-73Z" fill="#15384f" stroke="#15384f"/><path d="m221.9 172 59.2-3-57-71Z" fill="#00101c" stroke="#00101c"/><path d="m225.1 232-10.2 9 44.2 73Z" fill="#0c2435" stroke="#0c2435"/><path d="m157.6 327 57.3 69 3-68Z" fill="#205a7a" stroke="#205a7a"/><path d="m271.1 453 3 96 37.3-36Z" fill="#277297" stroke="#277297"/><path d="m783.4 218-43.3-55-38 100Z" fill="#297ea6" stroke="#297ea6"/><path d="m783.4 218-81.3 45 54.3 7Z" fill="#0c2435" stroke="#0c2435"/><path d="m214.9 396 10.2 31 76.3 10Z" fill="#00101c" stroke="#00101c"/><path d="m385.7 0-23 53 54.3 1Z" fill="#277297" stroke="#277297"/><path d="m417 54-54.3-1 1 64Z" fill="#205a7a" stroke="#205a7a"/><path d="m696.1 553 12-40-61.2 15Z" fill="#112e42" stroke="#112e42"/><path d="m646.9 528 61.2-15-34.2-51Z" fill="#246688" stroke="#246688"/><path d="M315.4 600h97.3l1-43Z" fill="#19435d" stroke="#19435d"/><path d="m626.9 30-56.3-3 20 90Z" fill="#112e42" stroke="#112e42"/><path d="M505.3 47 475 0l-58 54Z" fill="#205a7a" stroke="#205a7a"/><path d="m626.9 30-36.3 87h59.3ZM691.1 57l-41.2 60 71.2 35Z" fill="#0c2435" stroke="#0c2435"/><path d="m301.4 162 35-75-106.3-1Z" fill="#246688" stroke="#246688"/><path d="m224.1 98 77.3 64-71.3-76Z" fill="#19435d" stroke="#19435d"/><path d="m155.6 208 2 119 49.3-24Z" fill="#277297" stroke="#277297"/><path d="m812.7 223-29.3-5-27 52Z" fill="#00101c" stroke="#00101c"/><path d="M521.3 600h88.3l-59-79Z" fill="#1d4e6b" stroke="#1d4e6b"/><path d="m814.7 177-59.3-31-15.3 17Z" fill="#15384f" stroke="#15384f"/><path d="m740.1 163 15.3-17-34.3 6Z" fill="#205a7a" stroke="#205a7a"/><path d="M609.6 600h10.3l27-72Z" fill="#112e42" stroke="#112e42"/><path d="m619.9 600 76.2-47-49.2-25Z" fill="#297ea6" stroke="#297ea6"/><path d="m708.1 513 72.3-72-106.5 21Z" fill="#205a7a" stroke="#205a7a"/><path d="m803.4 446-23-5 49.3 56Z" fill="#112e42" stroke="#112e42"/><path d="m775.4 359 35.3-22-54.3-67Z" fill="#0c2435" stroke="#0c2435"/><path d="m691.1 57-64.2-27 23 87Z" fill="#277297" stroke="#277297"/><path d="M584.6 0h-77.3l63.3 27Z" fill="#00101c" stroke="#00101c"/><path d="M570.6 27 507.3 0l-2 47Z" fill="#112e42" stroke="#112e42"/><path d="M507.3 0H475l30.3 47ZM859.7 414l-49-77-35.3 22Z" fill="#1d4e6b" stroke="#1d4e6b"/><path d="m195.9 513 78.2 36-3-96ZM311.4 513l4 87 3-93ZM750.4 102l-59.3-45 30 95Z" fill="#246688" stroke="#246688"/><path d="M609.9 0h-25.3l-14 27Z" fill="#112e42" stroke="#112e42"/><path d="m609.9 0-39.3 27 56.3 3Z" fill="#1d4e6b" stroke="#1d4e6b"/><path d="M475 0h-89.3L417 54Z" fill="#297ea6" stroke="#297ea6"/><path d="m362.7 53-9.3-53-12 80Z" fill="#081a28" stroke="#081a28"/><path d="m783.4 218 31.3-41-74.6-14Z" fill="#112e42" stroke="#112e42"/><path d="m755.4 146-5-44-29.3 50Z" fill="#1d4e6b" stroke="#1d4e6b"/><path d="m810.7 337 2-114-56.3 47Z" fill="#112e42" stroke="#112e42"/><path d="m858.7 133-108.3-31 5 44Z" fill="#205a7a" stroke="#205a7a"/><path d="m162.9 490 33 23 29.2-86Z" fill="#19435d" stroke="#19435d"/><path d="m225.1 427-29.2 86 75.2-60Z" fill="#277297" stroke="#277297"/><path d="m206.9 303-49.3 24 60.3 1Z" fill="#297ea6" stroke="#297ea6"/><path d="m155.6 208 51.3 95 8-62Z" fill="#15384f" stroke="#15384f"/><path d="M696.1 0h-86.2l17 30Z" fill="#205a7a" stroke="#205a7a"/><path d="m274.1 549 41.3 51-4-87Z" fill="#297ea6" stroke="#297ea6"/><path d="m764.4 555 16-114-72.3 72ZM780.4 441l23 5-28-87Z" fill="#15384f" stroke="#15384f"/><path d="M385.7 0h-32.3l9.3 53Z" fill="#246688" stroke="#246688"/><path d="m230.1 86 106.3 1-69.3-87Z" fill="#0c2435" stroke="#0c2435"/><path d="m221.9 172-66.3 36 69.5 24Z" fill="#277297" stroke="#277297"/><path d="m267.1 0 69.3 87 5-7Z" fill="#205a7a" stroke="#205a7a"/><path d="m858.7 133-44 44 85.3-14Z" fill="#00101c" stroke="#00101c"/><path d="m812.7 223 2-46-31.3 41Z" fill="#112e42" stroke="#112e42"/><path d="m171.9 136 50 36 2.2-74Z" fill="#1d4e6b" stroke="#1d4e6b"/><path d="m171.9 136-16.3 72 66.3-36ZM162.9 490l62.2-63-108.5-1Z" fill="#246688" stroke="#246688"/><path d="m274.1 549-3 51h44.3Z" fill="#00101c" stroke="#00101c"/><path d="M186.9 600h84.2l3-51Z" fill="#1d4e6b" stroke="#1d4e6b"/><path d="m735.1 600 29.3-45-68.3-2Z" fill="#00101c" stroke="#00101c"/><path d="m696.1 553 68.3 2-56.3-42Z" fill="#205a7a" stroke="#205a7a"/><path d="m142.6 69 29.3 67 52.2-38Z" fill="#15384f" stroke="#15384f"/><path d="m859.7 414 3-87-52 10Z" fill="#297ea6" stroke="#297ea6"/><path d="m810.7 337 52-10-50-104Z" fill="#246688" stroke="#246688"/><path d="m859.7 414-84.3-55 28 87Z" fill="#0c2435" stroke="#0c2435"/><path d="m116.6 426 108.5 1-10.2-31Z" fill="#277297" stroke="#277297"/><path d="m195.9 513-9 87 87.2-51Z" fill="#1d4e6b" stroke="#1d4e6b"/><path d="M619.9 600h115.2l-39-47Z" fill="#15384f" stroke="#15384f"/><path d="M792.4 30 696.1 0l-5 57Z" fill="#297ea6" stroke="#297ea6"/><path d="m691.1 57 5-57-69.2 30Z" fill="#297ea6" stroke="#297ea6"/><path d="M792.4 30 691.1 57l59.3 45Z" fill="#246688" stroke="#246688"/><path d="m171.9 136-38.3 64 22 8Z" fill="#112e42" stroke="#112e42"/><path d="m155.6 208-81.3 53 83.3 66Z" fill="#00101c" stroke="#00101c"/><path d="m157.6 327-41 99 98.3-30Z" fill="#277297" stroke="#277297"/><path d="M735.1 600h8.3l21-45Z" fill="#081a28" stroke="#081a28"/><path d="m829.7 497-49.3-56-16 114Z" fill="#277297" stroke="#277297"/><path d="m829.7 497 30-83-56.3 32ZM867.7 511l-38-14 13 103Z" fill="#246688" stroke="#246688"/><path d="m230.1 86-87.5-17 81.5 29Z" fill="#0c2435" stroke="#0c2435"/><path d="M353.4 0h-86.3l74.3 80ZM96.6 370l20 56 41-99Z" fill="#205a7a" stroke="#205a7a"/><path d="m79.3 353 17.3 17 61-43Z" fill="#19435d" stroke="#19435d"/><path d="m267.1 0-60.2 29 23.2 57Z" fill="#00101c" stroke="#00101c"/><path d="m171.9 136-49.3-3 11 67Z" fill="#19435d" stroke="#19435d"/><path d="M900 380v-49l-37.3-4Z" fill="#112e42" stroke="#112e42"/><path d="m862.7 327 37.3-94-87.3-10Z" fill="#19435d" stroke="#19435d"/><path d="m900 380-37.3-53-3 87Z" fill="#205a7a" stroke="#205a7a"/><path d="m900 233-85.3-56-2 46Z" fill="#081a28" stroke="#081a28"/><path d="m814.7 177 44-44-103.3 13Z" fill="#15384f" stroke="#15384f"/><path d="M900 417v-37l-40.3 34Z" fill="#00101c" stroke="#00101c"/><path d="m142.6 69-20 64 49.3 3Z" fill="#081a28" stroke="#081a28"/><path d="m74.3 261 5 92 78.3-26ZM864.7 92l-72.3-62-42 72ZM95.3 464l10.3-3 11-35Z" fill="#297ea6" stroke="#297ea6"/><path d="m116.6 426-11 35 57.3 29Z" fill="#297ea6" stroke="#297ea6"/><path d="m128.6 544 58.3 56 9-87Z" fill="#15384f" stroke="#15384f"/><path d="m74.3 261 81.3-53-22-8Z" fill="#19435d" stroke="#19435d"/><path d="m64.3 429 31 35 21.3-38Z" fill="#246688" stroke="#246688"/><path d="M900 331v-98l-37.3 94Z" fill="#205a7a" stroke="#205a7a"/><path d="m128.6 544 67.3-31-33-23Z" fill="#00101c" stroke="#00101c"/><path d="m900 472-40.3-58-30 83Z" fill="#1d4e6b" stroke="#1d4e6b"/><path d="M900 472v-55l-40.3-3Z" fill="#205a7a" stroke="#205a7a"/><path d="m55.3 212 19 49 59.3-61Z" fill="#0c2435" stroke="#0c2435"/><path d="m842.7 600-13-103-65.3 58Z" fill="#081a28" stroke="#081a28"/><path d="m64.3 429 52.3-3-20-56Z" fill="#15384f" stroke="#15384f"/><path d="m105.6 461 23 83 34.3-54Z" fill="#1d4e6b" stroke="#1d4e6b"/><path d="m206.9 29-64.3 40 87.5 17Z" fill="#205a7a" stroke="#205a7a"/><path d="m55.3 212 5 57 14-8Z" fill="#15384f" stroke="#15384f"/><path d="m95.3 464 33.3 80-23-83Z" fill="#0c2435" stroke="#0c2435"/><path d="m900 132-35.3-40-6 41Z" fill="#205a7a" stroke="#205a7a"/><path d="m858.7 133 6-41-114.3 10Z" fill="#246688" stroke="#246688"/><path d="M900 233v-70l-85.3 14ZM55.3 212l78.3-12-56.3-59Z" fill="#0c2435" stroke="#0c2435"/><path d="m74.3 261-14 8 19 84Z" fill="#19435d" stroke="#19435d"/><path d="m79.3 353-15 76 32.3-59Z" fill="#297ea6" stroke="#297ea6"/><path d="m867.7 511 32.3-39-70.3 25Z" fill="#112e42" stroke="#112e42"/><path d="m206.9 29-18-29-46.3 69Z" fill="#297ea6" stroke="#297ea6"/><path d="M267.1 0h-78.2l18 29Z" fill="#0c2435" stroke="#0c2435"/><path d="M804.7 0h-4.3l-8 30Z" fill="#15384f" stroke="#15384f"/><path d="m792.4 30 8-30H696.1Z" fill="#277297" stroke="#277297"/><path d="M900 62 804.7 0l-12.3 30Z" fill="#246688" stroke="#246688"/><path d="m0 387 64.3 42 15-76Z" fill="#15384f" stroke="#15384f"/><path d="m95.3 464-7 99 40.3-19Z" fill="#205a7a" stroke="#205a7a"/><path d="M900 163v-31l-41.3 1Z" fill="#19435d" stroke="#19435d"/><path d="M864.7 92 900 62 792.4 30Z" fill="#297ea6" stroke="#297ea6"/><path d="m77.3 141 56.3 59-11-67Z" fill="#1d4e6b" stroke="#1d4e6b"/><path d="M60.3 269 0 276l79.3 77ZM900 600v-94l-32.3 5Z" fill="#15384f" stroke="#15384f"/><path d="m867.7 511 32.3-5v-34Z" fill="#0c2435" stroke="#0c2435"/><path d="m142.6 69-65.3 72 45.3-8Z" fill="#15384f" stroke="#15384f"/><path d="m65.3 39 12 102 65.3-72Z" fill="#246688" stroke="#246688"/><path d="M743.4 600h99.3l-78.3-45Z" fill="#15384f" stroke="#15384f"/><path d="m0 518 88.3 45 7-99Z" fill="#081a28" stroke="#081a28"/><path d="m128.6 544-31 56h89.3ZM900 132V62l-35.3 30Z" fill="#19435d" stroke="#19435d"/><path d="m88.3 563 9.3 37 31-56Z" fill="#0c2435" stroke="#0c2435"/><path d="m0 211 60.3 58-5-57Z" fill="#19435d" stroke="#19435d"/><path d="M0 211v65l60.3-7Z" fill="#081a28" stroke="#081a28"/><path d="M64.3 429 0 488l95.3-24Z" fill="#1d4e6b" stroke="#1d4e6b"/><path d="m88.3 563-11 37h20.3Z" fill="#081a28" stroke="#081a28"/><path d="M842.7 600H900l-32.3-89Z" fill="#112e42" stroke="#112e42"/><path d="M0 276v111l79.3-34Z" fill="#081a28" stroke="#081a28"/><path d="M188.9 0h-85.3l39 69Z" fill="#00101c" stroke="#00101c"/><path d="M0 198v13l55.3 1Z" fill="#1d4e6b" stroke="#1d4e6b"/><path d="M0 387v20l64.3 22Z" fill="#00101c" stroke="#00101c"/><path d="m0 198 55.3 14 22-71Z" fill="#205a7a" stroke="#205a7a"/><path d="M0 600h77.3l11-37ZM0 115v83l77.3-57ZM103.6 0 65.3 39l77.3 30ZM900 62V0h-95.3Z" fill="#15384f" stroke="#15384f"/><path d="M103.6 0H84.3l-19 39Z" fill="#081a28" stroke="#081a28"/><path d="M0 407v81l64.3-59Z" fill="#00101c" stroke="#00101c"/><path d="M65.3 39 0 115l77.3 26Z" fill="#277297" stroke="#277297"/><path d="M0 39v76l65.3-76ZM0 488v30l95.3-54Z" fill="#1d4e6b" stroke="#1d4e6b"/><path d="M0 0v39h65.3Z" fill="#081a28" stroke="#081a28"/><path d="M0 518v82l88.3-37Z" fill="#19435d" stroke="#19435d"/><path d="M84.3 0H0l65.3 39Z" fill="#277297" stroke="#277297"/></g></svg>