<svg width="900" height="600" xmlns="http://www.w3.org/2000/svg"><path d="m0 91 82 138 82-12 81-126 82 24 82-12 82 144 82-126 82-36 81 132 82-6 82 6V0H0Z" fill="#00cc8e"/><path d="m0 187 82 96 82-18 81-48 82 6 82-48 82 186 82-120 82-66 81 180 82-54 82-30v-56l-82-6-82 6-81-132-82 36-82 126-82-144-82 12-82-24-81 126-82 12L0 89Z" fill="#00b98a"/><path d="m0 307 82 30 82 48 81-60 82-30 82-12 82 186 82-174 82-12 81 132 82 18 82-42V269l-82 30-82 54-81-180-82 66-82 120-82-186-82 48-82-6-81 48-82 18-82-96Z" fill="#00a784"/><path d="m0 397 82 30 82 48 81-48 82-48 82-6 82 150 82-180 82 30 81 84 82 12 82 6v-86l-82 42-82-18-81-132-82 12-82 174-82-186-82 12-82 30-81 60-82-48-82-30Z" fill="#00957c"/><path d="M0 601h900V473l-82-6-82-12-81-84-82-30-82 180-82-150-82 6-82 48-81 48-82-48-82-30Z" fill="#038373"/></svg>