<svg id="visual" viewBox="0 0 900 600" width="900" height="600" xmlns="http://www.w3.org/2000/svg" xmlns:xlink="http://www.w3.org/1999/xlink" version="1.1"><path d="M0 91L82 229L164 217L245 91L327 115L409 103L491 247L573 121L655 85L736 217L818 211L900 217L900 0L818 0L736 0L655 0L573 0L491 0L409 0L327 0L245 0L164 0L82 0L0 0Z" fill="#00cc8e"></path><path d="M0 187L82 283L164 265L245 217L327 223L409 175L491 361L573 241L655 175L736 355L818 301L900 271L900 215L818 209L736 215L655 83L573 119L491 245L409 101L327 113L245 89L164 215L82 227L0 89Z" fill="#00b98a"></path><path d="M0 307L82 337L164 385L245 325L327 295L409 283L491 469L573 295L655 283L736 415L818 433L900 391L900 269L818 299L736 353L655 173L573 239L491 359L409 173L327 221L245 215L164 263L82 281L0 185Z" fill="#00a784"></path><path d="M0 397L82 427L164 475L245 427L327 379L409 373L491 523L573 343L655 373L736 457L818 469L900 475L900 389L818 431L736 413L655 281L573 293L491 467L409 281L327 293L245 323L164 383L82 335L0 305Z" fill="#00957c"></path><path d="M0 601L82 601L164 601L245 601L327 601L409 601L491 601L573 601L655 601L736 601L818 601L900 601L900 473L818 467L736 455L655 371L573 341L491 521L409 371L327 377L245 425L164 473L82 425L0 395Z" fill="#038373"></path></svg>