<svg width="900" height="600" xmlns="http://www.w3.org/2000/svg"><path d="m0 49 47 24 48 24 47-36 47-18 48 30 47 12 48-30 47 48 47-18 48-18 47-24 47 42 48-42 47 66 48-6 47-66 47 66 48-42 47 24V0H0Z" fill="#133248"/><path d="m0 169 47 6 48 36 47-78 47-18 48 120 47-18 48-60 47 78 47-72 48 6 47 6 47 30 48 6 47 48 48-90 47 12 47-12 48 30 47 18V83l-47-24-48 42-47-66-47 66-48 6-47-66-48 42-47-42-47 24-48 18-47 18-47-48-48 30-47-12-48-30-47 18-47 36-48-24L0 47Z" fill="#133a54"/><path d="m0 283 47 18 48 18 47-66 47 42 48 18 47 6 48-30h94l48 12 47-12 47-18 48 6 47 42 48-18 47-18 47 18 48-18 47-18v-50l-47-18-48-30-47 12-47-12-48 90-47-48-48-6-47-30-47-6-48-6-47 72-47-78-48 60-47 18-48-120-47 18-47 78-48-36-47-6Z" fill="#124260"/><path d="m0 319 47 12 48 24 47-84 47 54 48 6h47l48-6 47 6 47-18 48 24 47-18 47-12 48-12 47 54 48-24 47-24 47 36 48-18 47-42v-14l-47 18-48 18-47-18-47 18-48 18-47-42-48-6-47 18-47 12-48-12h-94l-48 30-47-6-48-18-47-42-47 66-48-18-47-18Z" fill="#104b6c"/><path d="M0 349h47l48 24 47-78 47 54 48 12h47l48-12 47 12 47-18 48 24 47-36 47-12 48 6 47 36 48-24 47-6 47 36 48-18 47-42v-32l-47 42-48 18-47-36-47 24-48 24-47-54-48 12-47 12-47 18-48-24-47 18-47-6-48 6h-47l-48-6-47-54-47 84-48-24-47-12Z" fill="#0c5379"/><path d="m0 379 47-6 48 24 47-60 47 42 48 30 47-24 48-18 47 48 47-30 48 12 47-48 47 18h48l47 30 48-18 47-12 47 42 48-36 47-24v-44l-47 42-48 18-47-36-47 6-48 24-47-36-48-6-47 12-47 36-48-24-47 18-47-12-48 12h-47l-48-12-47-54-47 78-48-24H0Z" fill="#0a577e"/><path d="m0 403 47 6 48 18 47-66 47 48 48 24 47-12 48-24 47 36 47-12 48-12 47-42 47 36 48-24 47 54 48-30 47-6 47 24 48-24 47-24v-26l-47 24-48 36-47-42-47 12-48 18-47-30h-48l-47-18-47 48-48-12-47 30-47-48-48 18-47 24-48-30-47-42-47 60-48-24-47 6Z" fill="#0a577e"/><path d="m0 421 47 36 48 18 47-54 47 42 48 24 47-18 48-12 47 6 47-18 48 24 47-48 47 24 48 6 47 6h48l47-18 47 24 48-42 47 6v-56l-47 24-48 24-47-24-47 6-48 30-47-54-48 24-47-36-47 42-48 12-47 12-47-36-48 24-47 12-48-24-47-48-47 66-48-18-47-6Z" fill="#0c5379"/><path d="m0 463 47 12 48 24 47-42 47 42 48 12 47-24h48l47-12h47l48 42 47-66 47 12 48 12 47-6 48 12 47-18 47 24 48-30 47 12v-44l-47-6-48 42-47-24-47 18h-48l-47-6-48-6-47-24-47 48-48-24-47 18-47-6-48 12-47 18-48-24-47-42-47 54-48-18-47-36Z" fill="#104b6c"/><path d="m0 511 47 12h48l47-18 47 18 48 18 47-36 48 30 47-12 47-12 48 36 47-42 47 6 48-12 47 18 48-12 47-18 47 42 48-24 47 6v-44l-47-12-48 30-47-24-47 18-48-12-47 6-48-12-47-12-47 66-48-42h-47l-47 12h-48l-47 24-48-12-47-42-47 42-48-24-47-12Z" fill="#124260"/><path d="m0 529 47 12h48l47-12 47 12 48 18 47-30 48 36 47-6 47-18 48 18 47-42 47 30 48-30 47 30 48-30h47l47 48 48-30 47 6v-32l-47-6-48 24-47-42-47 18-48 12-47-18-48 12-47-6-47 42-48-36-47 12-47 12-48-30-47 36-48-18-47-18-47 18H47L0 509Z" fill="#133a54"/><path d="M0 601h900v-62l-47-6-48 30-47-48h-47l-48 30-47-30-48 30-47-30-47 42-48-18-47 18-47 6-48-36-47 30-48-18-47-12-47 12H47L0 527Z" fill="#133248"/></svg>