<svg width="900" height="600" xmlns="http://www.w3.org/2000/svg"><path d="m0 49 14-1c13-1 41-3 68 2s55 17 82 22 54 3 81-1 55-10 82-18 55-18 82-18 55 10 82 10 55-10 82-13 55 1 82 8 54 17 81 23 55 8 82 5 55-11 68-15l14-4V0H0Z" fill="#6198ff"/><path d="m0 91 14-1c13-1 41-3 68 4s55 23 82 25 54-10 81-9 55 15 82 20 55 1 82-5 55-14 82-16 55 2 82-2 55-16 82-18 54 6 81 12 55 10 82 15l68 14 14 3V47l-14 4c-13 4-41 12-68 15s-55 1-82-5-54-16-81-23-55-11-82-8-55 13-82 13-55-10-82-10-55 10-82 18-55 14-82 18-54 6-81 1-55-17-82-22-55-3-68-2L0 47Z" fill="#377dff"/><path d="M0 211h14a472 472 0 0 1 150 20c27 8 54 18 81 15s55-19 82-9 55 46 82 44 55-42 82-57 55-5 82 0 55 5 82-4 54-27 81-16 55 51 82 68 55 11 68 8l14-3V131l-14-3-68-14c-27-5-55-9-82-15s-54-14-81-12-55 14-82 18-55 0-82 2-55 10-82 16-55 10-82 5-55-19-82-20-54 11-81 9-55-18-82-25-55-5-68-4L0 89Z" fill="#0063f7"/><path d="m0 391 14-11c13-11 41-33 68-31s55 28 82 36 54-2 81-8 55-8 82 0 55 26 82 21 55-33 82-35 55 22 82 20 55-30 82-39 54 1 81 9a472 472 0 0 0 150 20h14v-98l-14 3c-13 3-41 9-68-8s-55-57-82-68-54 7-81 16-55 9-82 4-55-15-82 0-55 55-82 57-55-34-82-44-55 6-82 9-54-7-81-15-55-14-82-17-55-3-68-3H0Z" fill="#0055d1"/><path d="m0 439 14 1 68 6c27 3 55 7 82 4s54-13 81-20 55-11 82-6 55 19 82 24 55 1 82-1 55-2 82-5 55-9 82-16 54-15 81-15 55 8 82 17l68 24 14 5v-86h-14c-13 0-41 0-68-3s-55-9-82-17-54-18-81-9-55 37-82 39-55-22-82-20-55 30-82 35-55-13-82-21-55-6-82 0-54 16-81 8-55-34-82-36-55 20-68 31L0 389Z" fill="#004cbb"/><path d="m0 457 14 3 68 16c27 7 55 15 82 14s54-11 81-18 55-11 82-6 55 19 82 24 55 1 82-2l82-8c27-3 55-7 82-12s54-11 81-14a226 226 0 0 1 150 32l14 7v-38l-14-5-68-24c-27-9-55-17-82-17s-54 8-81 15-55 13-82 16-55 3-82 5-55 6-82 1-55-19-82-24-55-1-82 6-54 17-81 20-55-1-82-4l-68-6-14-1Z" fill="#004cbb"/><path d="m0 517 14-2a453 453 0 0 1 150 3c27 5 54 11 81 10s55-9 82-10 55 5 82 7 55 0 82-4 55-10 82-9 55 9 82 8 54-11 81-16 55-5 82-2 55 9 68 12l14 3v-26l-14-7a226 226 0 0 0-150-32c-27 3-54 9-81 14s-55 9-82 12l-82 8c-27 3-55 7-82 2s-55-19-82-24-55-1-82 6-54 17-81 18-55-7-82-14l-68-16-14-3Z" fill="#0055d1"/><path d="m0 559 14-1c13-1 41-3 68-7s55-10 82-7 54 15 81 17 55-6 82-11 55-7 82-9l82-7c27-3 55-7 82-5s55 10 82 11 54-5 81-6 55 3 82 6l68 6 14 1v-32l-14-3c-13-3-41-9-68-12s-55-3-82 2-54 15-81 16-55-7-82-8-55 5-82 9-55 6-82 4-55-8-82-7-55 9-82 10-54-5-81-10a453 453 0 0 0-150-3l-14 2Z" fill="#0063f7"/><path d="m0 583 14-2 68-11c27-5 55-11 82-9s54 12 81 13 55-7 82-7 55 8 82 10 55-2 82-8 55-14 82-15 55 5 82 8 54 3 81 1 55-6 82-5 55 7 68 10l14 3v-26l-14-1-68-6c-27-3-55-7-82-6s-54 7-81 6-55-9-82-11-55 2-82 5l-82 7c-27 2-55 4-82 9s-55 13-82 11-54-14-81-17-55 3-82 7-55 6-68 7l-14 1Z" fill="#377dff"/><path d="M0 601h900v-32l-14-3c-13-3-41-9-68-10s-55 3-82 5-54 2-81-1-55-9-82-8-55 9-82 15-55 10-82 8-55-10-82-10-55 8-82 7-54-11-81-13-55 4-82 9l-68 11-14 2Z" fill="#6198ff"/></svg>