<svg id="visual" viewBox="0 0 900 600" width="900" height="600" xmlns="http://www.w3.org/2000/svg" xmlns:xlink="http://www.w3.org/1999/xlink" version="1.1"><path d="M0 91L13.7 90C27.3 89 54.7 87 82 87C109.3 87 136.7 89 163.8 96C191 103 218 115 245.2 119C272.3 123 299.7 119 327 115C354.3 111 381.7 107 409 94C436.3 81 463.7 59 491 58C518.3 57 545.7 77 573 87C600.3 97 627.7 97 654.8 98C682 99 709 101 736.2 100C763.3 99 790.7 95 818 86C845.3 77 872.7 63 886.3 56L900 49L900 0L886.3 0C872.7 0 845.3 0 818 0C790.7 0 763.3 0 736.2 0C709 0 682 0 654.8 0C627.7 0 600.3 0 573 0C545.7 0 518.3 0 491 0C463.7 0 436.3 0 409 0C381.7 0 354.3 0 327 0C299.7 0 272.3 0 245.2 0C218 0 191 0 163.8 0C136.7 0 109.3 0 82 0C54.7 0 27.3 0 13.7 0L0 0Z" fill="#6198ff"></path><path d="M0 259L13.7 249C27.3 239 54.7 219 82 218C109.3 217 136.7 235 163.8 255C191 275 218 297 245.2 295C272.3 293 299.7 267 327 243C354.3 219 381.7 197 409 188C436.3 179 463.7 183 491 193C518.3 203 545.7 219 573 231C600.3 243 627.7 251 654.8 270C682 289 709 319 736.2 313C763.3 307 790.7 265 818 253C845.3 241 872.7 259 886.3 268L900 277L900 47L886.3 54C872.7 61 845.3 75 818 84C790.7 93 763.3 97 736.2 98C709 99 682 97 654.8 96C627.7 95 600.3 95 573 85C545.7 75 518.3 55 491 56C463.7 57 436.3 79 409 92C381.7 105 354.3 109 327 113C299.7 117 272.3 121 245.2 117C218 113 191 101 163.8 94C136.7 87 109.3 85 82 85C54.7 85 27.3 87 13.7 88L0 89Z" fill="#3c80ff"></path><path d="M0 391L13.7 373C27.3 355 54.7 319 82 321C109.3 323 136.7 363 163.8 388C191 413 218 423 245.2 404C272.3 385 299.7 337 327 318C354.3 299 381.7 309 409 319C436.3 329 463.7 339 491 350C518.3 361 545.7 373 573 374C600.3 375 627.7 365 654.8 370C682 375 709 395 736.2 392C763.3 389 790.7 363 818 367C845.3 371 872.7 405 886.3 422L900 439L900 275L886.3 266C872.7 257 845.3 239 818 251C790.7 263 763.3 305 736.2 311C709 317 682 287 654.8 268C627.7 249 600.3 241 573 229C545.7 217 518.3 201 491 191C463.7 181 436.3 177 409 186C381.7 195 354.3 217 327 241C299.7 265 272.3 291 245.2 293C218 295 191 273 163.8 253C136.7 233 109.3 215 82 216C54.7 217 27.3 237 13.7 247L0 257Z" fill="#0066ff"></path><path d="M0 475L13.7 460C27.3 445 54.7 415 82 417C109.3 419 136.7 453 163.8 473C191 493 218 499 245.2 476C272.3 453 299.7 401 327 386C354.3 371 381.7 393 409 410C436.3 427 463.7 439 491 444C518.3 449 545.7 447 573 445C600.3 443 627.7 441 654.8 445C682 449 709 459 736.2 453C763.3 447 790.7 425 818 427C845.3 429 872.7 455 886.3 468L900 481L900 437L886.3 420C872.7 403 845.3 369 818 365C790.7 361 763.3 387 736.2 390C709 393 682 373 654.8 368C627.7 363 600.3 373 573 372C545.7 371 518.3 359 491 348C463.7 337 436.3 327 409 317C381.7 307 354.3 297 327 316C299.7 335 272.3 383 245.2 402C218 421 191 411 163.8 386C136.7 361 109.3 321 82 319C54.7 317 27.3 353 13.7 371L0 389Z" fill="#0059dd"></path><path d="M0 601L13.7 601C27.3 601 54.7 601 82 601C109.3 601 136.7 601 163.8 601C191 601 218 601 245.2 601C272.3 601 299.7 601 327 601C354.3 601 381.7 601 409 601C436.3 601 463.7 601 491 601C518.3 601 545.7 601 573 601C600.3 601 627.7 601 654.8 601C682 601 709 601 736.2 601C763.3 601 790.7 601 818 601C845.3 601 872.7 601 886.3 601L900 601L900 479L886.3 466C872.7 453 845.3 427 818 425C790.7 423 763.3 445 736.2 451C709 457 682 447 654.8 443C627.7 439 600.3 441 573 443C545.7 445 518.3 447 491 442C463.7 437 436.3 425 409 408C381.7 391 354.3 369 327 384C299.7 399 272.3 451 245.2 474C218 497 191 491 163.8 471C136.7 451 109.3 417 82 415C54.7 413 27.3 443 13.7 458L0 473Z" fill="#004cbb"></path></svg>